# xmcd
#
# Track frame offsets: 
#        150
#        17832
#        48280
#        62043
#        89300
#        111225
#        144245
#        161344
#        177159
#        189874
#        218719
#        235174
#        283474
#
# Disc length: 4159 seconds
#
# Revision: 2
# Processed by: cddbd v1.5.2PL0 Copyright (c) Steve Scherf et al.
# Submitted via: ExactAudioCopy v1.0b1
#
DISCID=af103d0d
DTITLE=Pearl Jam - 23-5-00 Estádio Do Restelo, Lisbon, Portugal (side 
DTITLE=B)
DYEAR=2000
DGENRE=Rock
TTITLE0=Thin Air
TTITLE1=Daughter
TTITLE2=Evacuation
TTITLE3=Immortality
TTITLE4=Better Man
TTITLE5=Black
TTITLE6=Go
TTITLE7=Encore Break
TTITLE8=Last Exit
TTITLE9=Jeremy
TTITLE10=Small Town
TTITLE11=Alive
TTITLE12=Yellow Ledbetter
EXTD=
EXTT0=
EXTT1=
EXTT2=
EXTT3=
EXTT4=
EXTT5=
EXTT6=
EXTT7=
EXTT8=
EXTT9=
EXTT10=
EXTT11=
EXTT12=
PLAYORDER=
